# xmcd
#
# Track frame offsets: 
#        150
#        11411
#        21847
#        32747
#        44329
#        57173
#        69699
#        78320
#        86728
#        97988
#
# Disc length: 1438 seconds
#
# Revision: 0
# Processed by: cddbd v1.5.2PL0 Copyright (c) Steve Scherf et al.
# Submitted via: ExactAudioCopy v0.99pb5
#
DISCID=75059c0a
DTITLE=Johnny Cash - The Sun Records Years - Disc 1
DYEAR=2009
DGENRE=Country
TTITLE0=Cry, Cry, Cry
TTITLE1=There You Go
TTITLE2=You Win Again
TTITLE3=Big River
TTITLE4=Folsom Prison Blues
TTITLE5=Give My Love To Rose
TTITLE6=I Forgot To Remember To Forget
TTITLE7=Wreck Of The Old 97
TTITLE8=Oh LoneSome Me
TTITLE9=Ballad Of A Teenage Queen
EXTD=
EXTT0=
EXTT1=
EXTT2=
EXTT3=
EXTT4=
EXTT5=
EXTT6=
EXTT7=
EXTT8=
EXTT9=
PLAYORDER=
